<svg xmlns="http://www.w3.org/2000/svg" viewBox="0 0 618.1333 546.1333">
  <path d="M272.54688.05273438c-3.8372-.0022982-7.67881.38911633-10.93165 1.17578122C254.26977 3.0049403 18.893296 82.832073 13.433594 85.398438 7.6382594 88.122564 3.223035 92.702074 1.4296875 97.851562c-2.06304764 5.923918-2.06304764 332.771398 0 338.695318 1.5453575 4.4374 6.1909253 9.82991 10.3027345 11.95703 4.391093 2.2716 244.263808 94.58244 249.535158 96.02929 7.15516 1.96392 16.73369 1.80105 24.59961-.41797 2.57226-.72564 36.66526-13.68213 78.24414-29.60351a157.90582 157.90582 0 0 1-29.82813-40.66016c-19.13948 7.36382-34.29031 13.17956-34.8164 13.33008-1.77067.5066-1.86719-6.32752-1.86719-132.88672 0-125.97693.10466-133.47512 1.86719-134.41406C303.0494 217.97231 496.37777 144 497.7832 144c1.03818 0 1.33362 21.82656 1.39063 102.46875a157.90582 157.90582 0 0 1 47.05664 15.0918c.00787-81.11162-.44754-160.44105-1.42188-164.083988-1.69638-6.342588-7.62613-11.593174-15.71289-13.914062-3.24242-.930571-58.69518-19.553497-123.22851-41.384766-64.53333-21.83127-119.62093-40.2523903-122.41602-40.9355465-3.23448-.79055016-7.06712-1.18715493-10.90429-1.18945313zm.51953 48.00585962l87.20117 29.30664c47.96 16.119223 87.91883 29.579276 88.79883 29.910156 1.38309.52006 1.3632.73344-.14453 1.58008-.95934.53867-40.90834 15.8673-88.77735 34.0625-47.86901 18.1952-87.1659 33.06216-87.32422 33.03906-1.29121-.18853-175.985571-67.03244-176.480466-67.52734-.813899-.8139-11.262076 2.81059 89.527346-31.064456l87.19922-29.30664zM46.933594 143.75195l2.40039.47266c3.035744.59845 197.314346 74.47967 198.412106 75.45312.44663.39602.68647 20.61114.53321 44.92188L248 308.80078l-2.63672-4.26758c-29.61525-47.90973-61.31892-77.56997-98.08008-91.75976-13.00176-5.01868-23.53286-6.98814-37.41601-6.99414-20.98489-.00981-36.907822 6.43132-55.175784 22.32031-3.478109 3.02516-6.646527 5.5-7.041015 5.5-.394486 0-.716797-20.21544-.716797-44.92383v-44.92383zm71.478516 104.04883c18.23794-.26805 37.46133 7.03836 57.58789 21.89844 15.78768 11.65654 32.77184 31.49157 44.7793 52.29687 5.84072 10.12024 12.90801 17.71557 17.57422 18.88672 2.6804.67273 4.51306.42159 8.3125-1.14258 1.76727-.72754 1.86718 3.18502 1.86718 73.47852 0 58.74786-.27898 74.22341-1.33398 74.13281-1.57914-.13551-196.987217-75.80618-198.931642-77.03515-1.045624-.66088-1.333984-16.70983-1.333984-74.37891 0-40.44537.255149-73.53711.566406-73.53711.311257 0 2.061462 1.70382 3.890625 3.78711 4.003807 4.56009 8.204053 6.87891 12.458984 6.87891 2.366976 0 5.288837-1.84045 11.697266-7.36914 10.324814-8.90744 16.161125-12.43975 24.958985-15.10352 5.85709-1.77338 11.82694-2.70362 17.90625-2.79297zm7.93164 26.36914c-4.61128.04751-9.10932.72278-13.43164 2.0586-8.67077 2.67971-14.67703 6.52459-23.525391 15.0625-5.399893 5.21042-7.38196 7.95207-8.3125 11.49609-2.178736 8.29786 1.056533 18.9967 8.103515 26.79687 7.966091 8.8175 13.603166 9.66372 21.396486 3.2129 11.55024-9.56055 15.5561-11.73711 22.83203-12.40235 17.73991-1.62195 35.20567 10.54848 50.23047 34.99805 6.83068 11.11543 12.17828 17.38999 16.20703 19.01562 4.88781 1.97224 9.11937 1.18116 13.07227-2.4414 9.5035-8.7093 5.93102-23.7143-11.61914-48.79688-21.83553-31.20716-50.05221-49.25656-74.95313-49zm14.87305 76.625c-3.09445.04489-6.07801.82731-8.56641 2.36524-7.95411 4.9159-11.85144 18.68907-9.02148 31.88476 2.88211 13.43881 13.78402 28.59613 23.75195 33.02149 11.73411 5.20946 22.0599.04124 25.92578-12.97657 1.92976-6.4982 2.0463-11.50204.44727-19.16992-2.62976-12.61048-10.80155-25.01707-20.875-31.68945-3.52245-2.33317-7.68354-3.49326-11.66211-3.43555z"/>
  <path d="M475.05273 259.96289a142.36066 142.36066 0 0 0-142.36132 142.35938 142.36066 142.36066 0 0 0 142.36132 142.36132 142.36066 142.36066 0 0 0 142.36133-142.36132 142.36066 142.36066 0 0 0-142.36133-142.35938zm16.39258 78.17383c2.82488.04243 5.58902 1.86932 6.3125 4.89648l4.375 17.15039 16.96485-4.83398c4.87984-1.36609 9.48298 3.23766 8.11718 8.11914l-4.83398 16.9707 17.14453 4.375c4.9203 1.17673 6.66931 7.48782 2.91797 11.03907l-12.58398 12.3164 12.58398 12.31641c3.74959 3.54987 2.00426 9.86181-2.91797 11.03906l-17.14453 4.375 4.83398 16.9707c1.36561 4.88039-3.23611 9.48578-8.11718 8.11914l-16.96485-4.83398-4.375 17.15039c-1.18714 4.96797-7.61445 6.61099-11.03515 2.91992l-12.31055-12.58984-12.3125 12.58984c-3.45601 3.65331-9.82039 2.16325-11.03516-2.91992l-4.375-17.15039-16.96484 4.83398c-4.87984 1.3661-9.483-3.23767-8.11719-8.11914l4.83399-16.9707-17.14453-4.375c-4.92034-1.17671-6.66924-7.48781-2.91797-11.03906l12.58398-12.31641-12.58398-12.3164c-3.74964-3.5496-2.00459-9.86207 2.91797-11.03907l17.14453-4.375-4.83399-16.9707c-1.36556-4.88039 3.23596-9.4858 8.11719-8.11914l16.96484 4.83398 4.375-17.15039c1.17069-4.89901 7.57888-6.5735 11.03516-2.91992l12.3125 12.68164 12.31055-12.68164c1.31098-1.38579 3.02773-2.00202 4.72265-1.97656z" paint-order="markers fill stroke"/>
</svg>