<svg xmlns="http://www.w3.org/2000/svg" viewBox="0 0 666.1333 666.1333">
  <path d="M381.19301 664.32848c-5.27135-1.44685-245.14321-93.75814-249.5343-96.02974-4.11181-2.12712-8.75788-7.51838-10.30324-11.95579-2.06305-5.92391-2.06305-332.7711 0-338.69502 1.79335-5.1495 6.20827-9.7302 12.00361-12.45433 5.4597-2.56637 240.83613-82.39279 248.18159-84.16921 6.50567-1.57334 15.36708-1.56803 21.83605.0131 2.79509.68315 57.88197 19.10406 122.4153 40.93535s119.98621 40.45464 123.22863 41.38521c8.08676 2.32089 14.01689 7.57234 15.71327 13.91493 1.99389 7.45492 1.89265 333.33292-.10528 339.06999-1.56309 4.48834-6.19019 9.82048-10.4565 12.04979-5.20929 2.72205-241.36502 93.53899-248.38006 95.51797-7.86592 2.21902-17.44385 2.38169-24.59901.41777zM368.4587 533.01465c0-70.2935-.0994-74.20653-1.86667-73.47899-3.79944 1.56417-5.6322 1.8163-8.3126 1.14357-4.66621-1.17115-11.73409-8.76669-17.57481-18.88693-12.00746-20.8053-28.99157-40.64099-44.77925-52.29753-26.83542-19.81344-52.06633-26.19845-75.49469-19.10491-8.79786 2.66377-14.63402 6.19526-24.95884 15.1027-6.40843 5.52869-9.33033 7.36955-11.69731 7.36955-4.25493 0-8.45442-2.31876-12.45823-6.87885-1.82916-2.08329-3.58041-3.78782-3.89167-3.78782-.31126 0-.56592 33.09167-.56592 73.53704 0 57.66908.28771 73.7189 1.33333 74.37978 1.94443 1.22897 197.35418 76.89991 198.93332 77.03542 1.055.0906 1.33334-15.38517 1.33334-74.13303zm-101.15156 4.84646c-9.96793-4.42536-20.87075-19.58247-23.75286-33.02128-2.82996-13.19569 1.06678-26.96899 9.02089-31.88489 5.68777-3.51525 13.96666-3.07696 20.22878 1.0709 10.07345 6.67238 18.24624 19.07828 20.876 31.68876 1.59903 7.66788 1.48221 12.67179-.44755 19.16999-3.86588 13.01781-14.19115 18.18598-25.92526 12.97652zm52.46255-43.65785c-4.02875-1.62563-9.37667-7.90017-16.20735-19.0156-15.0248-24.44957-32.49139-36.61878-50.2313-34.99683-7.27593.66524-11.28088 2.84061-22.83112 12.40116-7.79332 6.45082-13.42992 5.60432-21.39601-3.21318-7.04698-7.80017-10.28236-18.49871-8.10362-26.79657.93054-3.54402 2.91226-6.28457 8.31215-11.49499 8.84836-8.53791 14.85453-12.38369 23.5253-15.0634 27.66284-8.54925 62.50473 9.95584 88.38386 46.94211 17.55017 25.08258 21.1233 40.08787 11.6198 48.79717-3.9529 3.62256-8.1839 4.41237-13.07171 2.44013zm195.889 75.76872c51.92-20.05895 96.43999-37.36761 98.93333-38.46369l4.53333-1.9929V396.65542c0-109.76684-.24632-132.85997-1.41713-132.85997-1.40543 0-194.73359 73.97209-198.31619 75.88064-1.76253.93894-1.86667 8.43769-1.86667 134.41462 0 126.5592.096 133.39274 1.86667 132.88614 1.02666-.29374 44.34666-16.94593 96.26666-37.00487zM367.6707 339.47274c-1.09776-.97345-195.37625-74.8544-198.41199-75.45285l-2.4-.47313v44.92434c0 24.70839.32276 44.92435.71725 44.92435.39448 0 3.56297-2.47514 7.04108-5.5003 18.26796-15.88899 34.19011-22.33007 55.175-22.32026 13.88315.006 24.4142 1.9749 37.41596 6.99358 36.76116 14.18979 68.46469 43.85057 98.07994 91.7603l2.63742 4.26667.27867-44.20133c.15326-24.31074-.0867-44.52535-.53333-44.92137zm112.39832-76.75948c47.86901-18.1952 87.81946-33.52292 88.77879-34.06159 1.50775-.84664 1.5273-1.06097.14421-1.58103-.88-.33088-40.84-13.79007-88.8-29.9093l-87.19999-29.30771-87.19999 29.30771c-100.78942 33.87506-90.34022 30.24945-89.52632 31.06335.4949.4949 175.18965 67.34019 176.48086 67.52872.15832.0231 39.45343-14.84495 87.32244-33.04015zM67.845176 213.99499h44.811294v-79.17441h67.21695V82.037821h-67.21695V2.8636767H67.845176V82.037821H.62823247v52.782759H67.845176z" fill="#28353d"/>
</svg>