<svg xmlns="http://www.w3.org/2000/svg" viewBox="0 0 26.372881 24">
  <path d="M8.3689752 6.4960938c-1.1 0-1.9902344.9-1.9902344 1.9999999l-.00977 12.0000003c0 1.1.9 2 2 2H24.368975c1.1 0 2-.9 2-2v-10c0-1.1000002-.9-2.0000003-2-2.0000003h-8l-2-1.9999999zM16.5721 12.054688c1.327119-.000001 2.456097.850411 2.873047 2.035156h5.263672v2.033203h-1.017578v2.033203h-2.033204v-2.033203h-2.21289c-.41695 1.184746-1.545928 2.033203-2.873047 2.033203-1.683051 0-3.050781-1.367731-3.050781-3.050781 0-1.683051 1.36773-3.050781 3.050781-3.050781zm0 2.035156c-.559322 0-1.017578.456303-1.017578 1.015625s.458256 1.017578 1.017578 1.017578c.559322 0 1.017578-.458256 1.017578-1.017578 0-.559322-.458256-1.015625-1.017578-1.015625zM3.015625 8.0156251h2V5.015625h3V3.0156251h-3V.01562509h-2V3.0156251H.01562504V5.015625H3.015625z"/>
</svg>