<svg xmlns="http://www.w3.org/2000/svg" viewBox="0 0 618.1333 546.1333">
  <path class="pwCircle" d="M475.05273 259.96289a142.36066 142.36066 0 0 0-142.36132 142.35938 142.36066 142.36066 0 0 0 142.36132 142.36132 142.36066 142.36066 0 0 0 142.36133-142.36132 142.36066 142.36066 0 0 0-142.36133-142.35938zm-48.29687 98.0918c22.37876 0 41.41444 14.3189 48.44531 34.29687h88.74219v34.29688h-17.14844v34.29687h-34.29687v-34.29687h-37.29688c-7.03087 19.97797-26.06655 34.29687-48.44531 34.29687-28.38073 0-51.44531-23.06458-51.44531-51.44531s23.06458-51.44531 51.44531-51.44531zm0 34.29687c-9.43166 0-17.14844 7.71678-17.14844 17.14844s7.71678 17.14844 17.14844 17.14844S443.9043 418.93166 443.9043 409.5s-7.71678-17.14844-17.14844-17.14844z" paint-order="markers fill stroke"/>
  <g data-name="Ebene 2">
    <g data-name="Ebene 1" stroke-width=".23209909">
      <path d="M122.99999979 43.30468804a85.04988074 85.04988074 0 0 0-85.35156174 84.57617174v292.5039091a85.04988074 85.04988074 0 0 0 85.35156174 84.57616974h236.76561927a154.54542952 154.54542952 0 0 1-26.12499992-40.75781988H122.99999979a44.07600186 44.07600186 0 0 1-44.20507787-43.81834986v-292.5039091A44.07600186 44.07600186 0 0 1 122.9999998 84.0644529h243.47265925a20.37988244 20.37988244 0 0 0 0-40.75976487H122.99999979zm360.51171889 115.24023164a20.57310894 20.57310894 0 0 0-21.17382994 20.56445994v69.27147979a154.54542952 154.54542952 0 0 1 12.71483996-.60352 154.54542952 154.54542952 0 0 1 28.43164992 2.73827999v-71.40623978a20.57310894 20.57310894 0 0 0-19.97265994-20.56445994z"/>
      <path d="M176.11753115 297.6562503c-7.49118402.09974188-15.09073124.9508008-22.70379855 2.60866597 0 0-7.02175522 3.63571437-5.69698915 11.88204569 1.47969559 8.28596955 10.56930035 10.30843332 10.56930035 10.30843332 23.26700627-5.22087354 47.66006608-.87905127 67.69064864 12.0587633 20.12836839 12.90800405 34.29053072 33.2934566 39.37400604 56.65852012 0 0 3.92602142 6.2436479 13.41358982 4.27484657 8.57558293-2.3140332 8.7768935-9.13874326 8.7768935-9.13874326-11.70517727-53.26957965-58.9853625-89.35067318-111.42365065-88.65253171zm22.15682097-135.3223871a226.02415132 226.02415132 0 0 0-44.86061952 4.93121707s-7.02175522 3.63571868-5.69698915 11.88205c1.47969559 8.28596956 10.35051018 10.17379255 10.35051018 10.17379255a203.18907694 203.18907694 0 0 1 240.84708745 155.1061656s3.92602142 6.28572044 13.41358982 4.3169191c8.57558293-2.31403318 8.7768935-9.1808158 8.7768935-9.1808158A226.02415132 226.02415132 0 0 0 198.27435212 162.3338632z"/>
      <path d="M183.52277343 228.53504456a169.41040087 169.41040087 0 0 0-33.5928718 3.9129968s-7.03016972 3.63571869-5.70540365 11.88205c1.47969558 8.28596956 10.56930034 10.30843332 10.56930034 10.30843332a147.049262 147.049262 0 0 1 174.79738019 112.0211196s3.9260171 6.2436479 13.4135855 4.27484656c8.57558293-2.3140418 8.7768935-9.18923462 8.7768935-9.18923462a167.16997848 167.16997848 0 0 0-73.93461106-106.33254496 169.41040087 169.41040087 0 0 0-94.32427302-26.8776667z"/>
    </g>
  </g>
</svg>