<svg xmlns="http://www.w3.org/2000/svg" viewBox="0 0 384 512">
  <path fill="#28353d" d="M369.9 97.9L286 14C277 5 264.8-.1 252.1-.1H48C21.5 0 0 21.5 0 48v416c0 26.5 21.5 48 48 48h288c26.5 0 48-21.5 48-48V131.9c0-12.7-5.1-25-14.1-34zM332.1 128H256V51.9l76.1 76.1zM48 464V48h160v104c0 13.3 10.7 24 24 24h104v288H48z"/>
  <g aria-label="{ }" style="line-height:1.25" font-weight="900" font-size="266.66665649" font-family="Roboto" letter-spacing="0" word-spacing="0" fill="#28353d">
    <path d="M145.85506 444.97671q-46.874999-13.15104-46.874999-60.54687v-25.78125q0-26.30208-21.093749-26.30208v-29.55729q21.093749 0 21.093749-26.43229v-27.34375q.390625-23.4375 12.109379-37.89062 11.84895-14.45313 34.76562-20.96355l8.20312 22.91667q-16.40625 6.25-17.05729 35.02604v28.25521q0 29.16666-24.08854 41.14583 24.08854 11.97917 24.08854 41.27604v28.125q.65104 28.77604 17.05729 35.02604zM231.14152 421.92984q16.40625-6.25 17.05729-35.02604v-28.25521q0-29.29687 24.21875-41.14583-24.21875-11.84896-24.21875-41.14583v-28.25521q-.65104-28.77604-17.05729-35.02604l8.20312-22.91667q23.3073 6.51042 35.02604 21.35417 11.71875 14.71354 11.84896 38.67187v26.17188q0 26.43229 21.09375 26.43229v29.55729q-21.09375 0-21.09375 26.17187v27.73438q-.91146 45.83333-46.875 58.72395z" style="-inkscape-font-specification:'Roboto Heavy'"/>
  </g>
</svg>