<svg xmlns="http://www.w3.org/2000/svg" viewBox="0 0 108.12 107.15">
  <g data-name="Ebene 2">
    <g data-name="Ebene 1" fill="#fff">
      <path d="M88.31 107.15h-68.5A19.74 19.74 0 0 1 0 87.52V19.63A19.74 19.74 0 0 1 19.81 0h56.51a4.73 4.73 0 1 1 0 9.46H19.81A10.23 10.23 0 0 0 9.55 19.63v67.89a10.23 10.23 0 0 0 10.26 10.17h68.5a10.23 10.23 0 0 0 10.26-10.17v-56a4.77 4.77 0 0 1 9.55 0v56a19.74 19.74 0 0 1-19.81 19.63"/>
      <path d="M32.138672 59.034628c-1.738697.02315-3.502545.22068-5.269531.605469 0 0-1.629743.843846-1.322266 2.757812C25.890311 64.321075 28 64.790487 28 64.790487c5.400251-1.21176 11.061858-.204027 15.710938 2.798828 4.671776 2.995936 7.958801 7.727381 9.138671 13.150391 0 0 .911226 1.449145 3.113282.992188C57.953276 81.194809 58 79.6108 58 79.6108c-2.716761-12.363821-13.690449-20.73821-25.861328-20.576172zM37.28125 27.626425a52.46 52.46 0 0 0-10.412109 1.144531s-1.629743.843847-1.322266 2.757813c.343436 1.923166 2.402344 2.361328 2.402344 2.361328a47.16 47.16 0 0 1 55.90039 36s.911226 1.45891 3.113282 1.001953C88.953276 70.354965 89 68.761191 89 68.761191a52.46 52.46 0 0 0-51.71875-41.134766z"/>
      <path d="M33.857422 42.991659a39.32 39.32 0 0 0-7.796875.908203s-1.631696.843847-1.324219 2.757813c.343436 1.923166 2.453125 2.392578 2.453125 2.392578a34.13 34.13 0 0 1 40.570313 26s.911225 1.449145 3.113281.992188c1.990385-.537087 2.037109-2.132813 2.037109-2.132813A38.8 38.8 0 0 0 55.75 49.229941a39.32 39.32 0 0 0-21.892578-6.238282z"/>
    </g>
  </g>
</svg>
