<svg xmlns="http://www.w3.org/2000/svg" viewBox="0 0 24 24">
  <path fill="#fff" fill-opacity="0.8" d="M8.4101562 3L7 4.4101562l1.6191406 1.6289063C7.8791406 6.5490625 7.2605469 7.22 6.8105469 8H4v2h2.0898438C6.0398438 10.33 6 10.66 6 11v1H4v2h2v1c0 .34.0398438.67.0898438 1H4v2h2.8105469C7.8505469 19.79 9.78 21 12 21c2.22 0 4.149453-1.21 5.189453-3H20v-2h-2.089844c.05-.33.089844-.66.089844-1v-1h2v-2h-2v-1c0-.34-.039844-.67-.089844-1H20V8h-2.810547c-.45-.78-1.070312-1.4509375-1.820312-1.9609375L17 4.4101562 15.589844 3l-2.169922 2.1699219C12.959922 5.0599219 12.49 5 12 5c-.49 0-.960156.0599219-1.410156.1699219L8.4101562 3zm2.0312498 6.3496094c.504758.0086285 1.009955.2300931 1.394532.6718746.584557.671509.737832 1.626575.460937 2.439454l2.800781 3.214843c.12307.106028.12258.354724-.03125.496094l-.707031.8125c-.123064.141371-.308576.141371-.431641 0l-2.798828-3.216797c-.707621.318083-1.5384896.142211-2.1230466-.529297-.615323-.706852-.7695847-1.767012-.4003906-2.615234l1.3535156 1.519531.9238276-1.060547L9.5585938 9.5625c.2768955-.145788.5799582-.2180677.8828122-.2128906z"/>
  <path d="M37.348814-3.519322h24v24h-24z" clip-rule="evenodd" fill="none"/>
</svg>