<svg xmlns="http://www.w3.org/2000/svg" viewBox="0 0 24 24">
  <path d="M4 4c-1.1 0-1.9902344.9-1.9902344 2L2 18c0 1.1.9 2 2 2h16c1.1 0 2-.9 2-2V8c0-1.1-.9-2-2-2h-8l-2-2H4zm8.203125 5.5585938c1.327119-1e-7 2.456097.8504112 2.873047 2.0351562h5.263672v2.033203h-1.017578v2.033203h-2.033204v-2.033203h-2.21289c-.41695 1.184746-1.545928 2.033203-2.873047 2.033203-1.683051 0-3.0507812-1.367731-3.0507812-3.050781-1e-7-1.683051 1.3677302-3.0507812 3.0507812-3.0507812zm0 2.0351562c-.559322 0-1.017578.456303-1.017578 1.015625s.458256 1.017578 1.017578 1.017578c.559322 0 1.017578-.458256 1.017578-1.017578 0-.559322-.458256-1.015625-1.017578-1.015625z"/>
</svg>
