<?xml version="1.0" encoding="UTF-8" standalone="no"?>
<svg
   xmlns:dc="http://purl.org/dc/elements/1.1/"
   xmlns:cc="http://creativecommons.org/ns#"
   xmlns:rdf="http://www.w3.org/1999/02/22-rdf-syntax-ns#"
   xmlns:svg="http://www.w3.org/2000/svg"
   xmlns="http://www.w3.org/2000/svg"
   xmlns:sodipodi="http://sodipodi.sourceforge.net/DTD/sodipodi-0.dtd"
   xmlns:inkscape="http://www.inkscape.org/namespaces/inkscape"
   width="165"
   height="121"
   viewBox="0 0 165 121"
   version="1.1"
   id="svg6"
   sodipodi:docname="telemetryIcon.svg"
   inkscape:version="0.92.2 (5c3e80d, 2017-08-06)">
  <metadata
     id="metadata12">
    <rdf:RDF>
      <cc:Work
         rdf:about="">
        <dc:format>image/svg+xml</dc:format>
        <dc:type
           rdf:resource="http://purl.org/dc/dcmitype/StillImage" />
      </cc:Work>
    </rdf:RDF>
  </metadata>
  <defs
     id="defs10" />
  <sodipodi:namedview
     pagecolor="#ffffff"
     bordercolor="#666666"
     borderopacity="1"
     objecttolerance="10"
     gridtolerance="10"
     guidetolerance="10"
     inkscape:pageopacity="0"
     inkscape:pageshadow="2"
     inkscape:window-width="1920"
     inkscape:window-height="1137"
     id="namedview8"
     showgrid="false"
     inkscape:zoom="1.9504132"
     inkscape:cx="82.5"
     inkscape:cy="60.5"
     inkscape:window-x="1912"
     inkscape:window-y="-8"
     inkscape:window-maximized="1"
     inkscape:current-layer="svg6" />
  <ellipse
     cx="82.5"
     cy="60.5"
     rx="21.19"
     ry="21.59"
     paint-order="markers fill stroke"
     id="ellipse2" />
  <path
     style="color:#000000;font-style:normal;font-variant:normal;font-weight:normal;font-stretch:normal;font-size:medium;line-height:normal;font-family:sans-serif;font-variant-ligatures:normal;font-variant-position:normal;font-variant-caps:normal;font-variant-numeric:normal;font-variant-alternates:normal;font-feature-settings:normal;text-indent:0;text-align:start;text-decoration:none;text-decoration-line:none;text-decoration-style:solid;text-decoration-color:#000000;letter-spacing:normal;word-spacing:normal;text-transform:none;writing-mode:lr-tb;direction:ltr;text-orientation:mixed;dominant-baseline:auto;baseline-shift:baseline;text-anchor:start;shape-padding:0;clip-rule:nonzero;display:inline;overflow:visible;visibility:visible;opacity:1;isolation:auto;mix-blend-mode:normal;color-interpolation:sRGB;color-interpolation-filters:linearRGB;solid-color:#000000;solid-opacity:1;vector-effect:none;fill:#000000;fill-opacity:1;fill-rule:nonzero;stroke:none;stroke-width:15.56999969;stroke-linecap:round;stroke-linejoin:round;stroke-miterlimit:4;stroke-dasharray:none;stroke-dashoffset:0;stroke-opacity:1;paint-order:markers fill stroke;color-rendering:auto;image-rendering:auto;shape-rendering:auto;text-rendering:auto;enable-background:accumulate"
     d="M 135.47852,0.16601562 A 7.7857783,7.7857783 0 0 0 130.05469,13.535156 c 26.00509,26.002439 26.00509,67.927249 0,93.929684 a 7.7857783,7.7857783 0 1 0 11.00976,11.00977 c 31.95585,-31.952591 31.95585,-83.996629 0,-115.9492194 A 7.7857783,7.7857783 0 0 0 135.47852,0.16601562 Z M 29.287109,0.16992188 A 7.7857783,7.7857783 0 0 0 23.935547,2.5253906 c -31.9558511,31.9525904 -31.9558511,83.9966284 0,115.9492194 a 7.7857783,7.7857783 0 1 0 11.009765,-11.00977 c -26.0050919,-26.002435 -26.0050919,-67.927245 0,-93.929684 A 7.7857783,7.7857783 0 0 0 29.287109,0.16992188 Z M 116.45703,18.755859 a 7.7857783,7.7857783 0 0 0 -5.41992,13.371094 c 15.74192,15.733016 15.74192,41.013078 0,56.746094 a 7.7857783,7.7857783 0 1 0 11.00586,11.013672 c 21.69587,-21.683593 21.69587,-57.089845 0,-78.773438 a 7.7857783,7.7857783 0 0 0 -5.58594,-2.357422 z m -68.148436,0.0039 a 7.7857783,7.7857783 0 0 0 -5.351563,2.353515 c -21.69587,21.683593 -21.69587,57.089845 0,78.773438 a 7.7857783,7.7857783 0 1 0 11.00586,-11.013672 c -15.741925,-15.733016 -15.741925,-41.013078 0,-56.746094 A 7.7857783,7.7857783 0 0 0 48.308594,18.759766 Z"
     id="path4"
     inkscape:connector-curvature="0" />
</svg>
